<svg width="12" height="13" viewBox="0 0 12 13" fill="none" xmlns="http://www.w3.org/2000/svg">
<path d="M11.8242 11.585C11.8799 11.6438 11.9241 11.7137 11.9543 11.7905C11.9845 11.8674 12 11.9498 12 12.033C12 12.1162 11.9845 12.1986 11.9543 12.2755C11.9241 12.3524 11.8799 12.4222 11.8242 12.4811C11.7684 12.5399 11.7023 12.5866 11.6294 12.6184C11.5566 12.6503 11.4785 12.6667 11.3997 12.6667C11.3209 12.6667 11.2428 12.6503 11.17 12.6184C11.0971 12.5866 11.031 12.5399 10.9752 12.4811L6 7.22866L1.02478 12.4811C0.912198 12.5999 0.75951 12.6667 0.6003 12.6667C0.441091 12.6667 0.288402 12.5999 0.175824 12.4811C0.0632457 12.3622 3.1384e-09 12.2011 0 12.033C-3.1384e-09 11.865 0.0632457 11.7038 0.175824 11.585L5.1518 6.33333L0.175824 1.08171C0.0632457 0.962876 -1.1862e-09 0.801705 0 0.63365C1.1862e-09 0.465596 0.0632457 0.304424 0.175824 0.185592C0.288402 0.0667593 0.441091 1.2521e-09 0.6003 0C0.75951 -1.2521e-09 0.912198 0.0667593 1.02478 0.185592L6 5.43801L10.9752 0.185592C11.0878 0.0667593 11.2405 -3.31276e-09 11.3997 0C11.5589 3.31276e-09 11.7116 0.0667593 11.8242 0.185592C11.9368 0.304424 12 0.465596 12 0.63365C12 0.801705 11.9368 0.962876 11.8242 1.08171L6.8482 6.33333L11.8242 11.585Z" fill="white" fill-opacity="0.8"/>
</svg>
