<svg width="62" height="51" viewBox="0 0 62 51" fill="none" xmlns="http://www.w3.org/2000/svg">
<path d="M32.282 31.3112L30.7595 38L27.6499 32.3328L22.9498 23.8753L18.2856 32.3328L15.176 37.9567L13.6535 31.3149L9 10.1765L12.5394 7L16.7989 25.6873L20.3813 19.1755L21.0583 17.9373L22.9857 14.4829L24.913 17.9373L25.5901 19.1755L29.1725 25.6873L33.4319 7L37 10.1765L32.282 31.3112Z" fill="#00E8F1"/>
<path d="M47.3665 35.9997C42.2753 35.9997 38.1312 31.9578 38.1312 27C38.1312 22.0386 42.2789 18.0003 47.3665 18.0003C49.9684 18.0003 52.3199 19.0611 54 20.755V14.5878C52.015 13.5764 49.7579 13 47.3665 13C39.4448 13 33 19.2804 33 27C33 34.7196 39.4448 41 47.3665 41C49.7579 41 52.015 40.4236 54 39.4122V33.245C52.3199 34.9389 49.9684 35.9997 47.3665 35.9997Z" fill="#00E8F1"/>
<path d="M27.9962 47H24.9672C24.6616 47 24.3675 46.931 24.0963 46.7969C23.7028 46.6015 23.3858 46.2797 23.2024 45.8889C23.0688 45.6207 23 45.3257 23 45.0192V41H24.3827V45.1149C24.4171 45.3563 24.631 45.5709 24.8984 45.6054L28 45.613V47H27.9962ZM23.382 41.387V45.023C23.382 45.2682 23.4355 45.5057 23.5462 45.7241C23.6952 46.0383 23.9511 46.2988 24.2681 46.4559C24.4859 46.5632 24.7189 46.6207 24.9672 46.6207H27.6142V46L24.8717 45.9923C24.4095 45.931 24.0619 45.5824 24.0046 45.1456V41.3908H23.382V41.387Z" fill="#00E8F1"/>
<path d="M31.5 47C30.1207 47 29 45.6552 29 44C29 42.3448 30.1207 41 31.5 41C32.8793 41 34 42.3448 34 44C34 45.6552 32.8793 47 31.5 47ZM31.5 41.387C30.2995 41.387 29.3193 42.5594 29.3193 44.0038C29.3193 45.4483 30.2963 46.6207 31.5 46.6207C32.7037 46.6207 33.6807 45.4483 33.6807 44.0038C33.6807 42.5594 32.7037 41.387 31.5 41.387ZM31.5 46C30.5837 46 29.8365 45.1035 29.8365 44.0038C29.8365 42.9042 30.5837 42.0077 31.5 42.0077C32.4163 42.0077 33.1635 42.9042 33.1635 44.0038C33.1635 45.1035 32.4195 46 31.5 46ZM31.5 42.3908C30.7593 42.3908 30.1558 43.1149 30.1558 44.0038C30.1558 44.8927 30.7593 45.6169 31.5 45.6169C32.2407 45.6169 32.8442 44.8927 32.8442 44.0038C32.8442 43.1149 32.2407 42.3908 31.5 42.3908Z" fill="#00E8F1"/>
<path d="M39.9962 47H36.9671C36.6616 47 36.3675 46.931 36.0963 46.7969C35.7028 46.6015 35.3858 46.2797 35.2024 45.8889C35.0688 45.6207 35 45.3257 35 45.0192V41H36.3827V45.1149C36.4171 45.3563 36.631 45.5709 36.8984 45.6054L40 45.613V47H39.9962ZM35.382 41.387V45.023C35.382 45.2682 35.4354 45.5057 35.5462 45.7241C35.6952 46.0383 35.9511 46.2988 36.2681 46.4559C36.4859 46.5632 36.7189 46.6207 36.9671 46.6207H39.6142V46L36.8717 45.9923C36.4095 45.931 36.0619 45.5824 36.0046 45.1456V41.3908H35.382V41.387Z" fill="#00E8F1"/>
</svg>
