<svg width="30" height="30" viewBox="0 0 30 30" fill="none" xmlns="http://www.w3.org/2000/svg">
<path d="M19.8019 15.1369C21.6485 16.0086 23.223 17.3665 24.3567 19.0649C25.4903 20.7634 26.1403 22.7384 26.2369 24.7781C26.2497 24.965 26.2252 25.1525 26.1646 25.3297C26.104 25.5069 26.0086 25.6703 25.884 25.8101C25.7595 25.95 25.6082 26.0635 25.4392 26.1441C25.2701 26.2247 25.0867 26.2707 24.8996 26.2795C24.7125 26.2882 24.5256 26.2595 24.3497 26.195C24.1739 26.1305 24.0127 26.0316 23.8757 25.904C23.7386 25.7763 23.6284 25.6226 23.5515 25.4518C23.4747 25.281 23.4327 25.0966 23.4281 24.9094C23.3259 22.7429 22.3933 20.6989 20.8239 19.2018C19.2545 17.7048 17.1689 16.8695 15 16.8695C12.8311 16.8695 10.7454 17.7048 9.17607 19.2018C7.60668 20.6989 6.67409 22.7429 6.57187 24.9094C6.54661 25.2761 6.37877 25.6184 6.10428 25.8628C5.8298 26.1073 5.47049 26.2346 5.1033 26.2175C4.73612 26.2003 4.39025 26.0401 4.13976 25.771C3.88927 25.502 3.75407 25.1456 3.76312 24.7781C3.85955 22.7386 4.50924 20.7637 5.64252 19.0653C6.77581 17.3668 8.34997 16.0089 10.1962 15.1369C9.01314 14.1501 8.16274 12.8227 7.76072 11.3355C7.3587 9.8482 7.42457 8.2732 7.94937 6.8247C8.47417 5.3762 9.43243 4.12452 10.6938 3.23992C11.9552 2.35532 13.4584 1.88074 14.9991 1.88074C16.5397 1.88074 18.0429 2.35532 19.3043 3.23992C20.5657 4.12452 21.5239 5.3762 22.0487 6.8247C22.5736 8.2732 22.6394 9.8482 22.2374 11.3355C21.8354 12.8227 20.985 14.1501 19.8019 15.1369ZM19.6875 9.37501C19.6875 8.13181 19.1936 6.93953 18.3146 6.06045C17.4355 5.18137 16.2432 4.68751 15 4.68751C13.7568 4.68751 12.5645 5.18137 11.6854 6.06045C10.8064 6.93953 10.3125 8.13181 10.3125 9.37501C10.3125 10.6182 10.8064 11.8105 11.6854 12.6896C12.5645 13.5687 13.7568 14.0625 15 14.0625C16.2432 14.0625 17.4355 13.5687 18.3146 12.6896C19.1936 11.8105 19.6875 10.6182 19.6875 9.37501Z" fill="white"/>
</svg>
